<svg xmlns="http://www.w3.org/2000/svg" xmlns:xlink="http://www.w3.org/1999/xlink" width="500" zoomAndPan="magnify" viewBox="0 0 375 374.999991" height="500" preserveAspectRatio="xMidYMid meet" version="1.0"><defs><g/><clipPath id="5f63c22693"><path d="M 140.234375 107.050781 L 234.734375 107.050781 L 234.734375 200.800781 L 140.234375 200.800781 Z M 140.234375 107.050781 " clip-rule="nonzero"/></clipPath><clipPath id="cdee34c991"><path d="M 213.398438 133.875 C 214.90625 137.878906 215.875 142.125 216.234375 146.507812 C 216.921875 155.042969 215.234375 163.425781 211.5625 170.832031 C 207.890625 178.246094 202.25 184.675781 195.039062 189.308594 L 191.738281 191.425781 L 190.308594 187.769531 C 188.933594 184.265625 187.964844 180.691406 187.382812 177.121094 C 186.65625 180.804688 185.507812 184.429688 183.949219 187.910156 L 182.417969 191.328125 L 179.277344 189.3125 C 172.066406 184.683594 166.417969 178.246094 162.753906 170.839844 C 159.082031 163.425781 157.394531 155.050781 158.082031 146.515625 C 158.445312 141.972656 159.476562 137.589844 161.074219 133.464844 C 162.65625 134.5 164.171875 135.648438 165.597656 136.886719 C 165.871094 137.125 166.148438 137.371094 166.417969 137.617188 C 165.417969 140.625 164.769531 143.78125 164.507812 147.023438 C 163.910156 154.394531 165.363281 161.621094 168.523438 167.996094 C 171.113281 173.234375 174.851562 177.902344 179.546875 181.609375 C 181.046875 177.238281 181.828125 172.6875 181.894531 168.132812 C 181.976562 162.277344 180.875 156.390625 178.566406 150.851562 C 177.777344 148.941406 176.851562 147.105469 175.804688 145.34375 C 173.417969 141.476562 170.671875 137.886719 167.277344 134.933594 C 164.125 132.203125 160.597656 129.90625 156.78125 128.132812 L 156.683594 128.085938 L 156.65625 128.070312 L 156.589844 128.042969 L 156.492188 127.996094 L 156.46875 127.988281 L 156.394531 127.953125 L 156.289062 127.90625 L 156.183594 127.863281 L 156.082031 127.816406 L 156.074219 127.816406 L 155.976562 127.773438 L 155.871094 127.726562 C 149.4375 135.597656 146.394531 145.25 146.683594 154.796875 C 146.996094 165.027344 151.15625 175.144531 159.074219 182.816406 C 166.984375 190.476562 177.230469 194.3125 187.484375 194.3125 C 197.742188 194.3125 207.988281 190.476562 215.898438 182.816406 C 223.816406 175.144531 227.972656 165.019531 228.289062 154.796875 C 228.578125 145.269531 225.554688 135.640625 219.144531 127.78125 C 209.570312 131.964844 204.921875 136.894531 199.546875 145.613281 C 198.507812 147.359375 197.582031 149.179688 196.792969 151.042969 C 192.800781 160.417969 191.941406 171.128906 194.941406 181.476562 C 199.554688 177.78125 203.234375 173.167969 205.792969 167.996094 C 208.949219 161.621094 210.40625 154.394531 209.808594 147.023438 C 209.5625 143.980469 208.972656 141.011719 208.070312 138.171875 C 208.511719 137.753906 208.964844 137.34375 209.421875 136.941406 C 210.683594 135.84375 212.011719 134.820312 213.390625 133.882812 Z M 187.484375 123.484375 C 190.597656 123.484375 193.128906 126.003906 193.128906 129.125 C 193.128906 132.242188 190.605469 134.761719 187.484375 134.761719 C 184.367188 134.761719 181.84375 132.242188 181.84375 129.125 C 181.84375 126.011719 184.367188 123.484375 187.484375 123.484375 Z M 190.875 148.515625 C 193.890625 141.445312 198.464844 135.046875 204.367188 129.863281 C 203.777344 128.871094 203.152344 127.898438 202.480469 126.960938 C 198.605469 121.539062 193.367188 117.085938 187.15625 114.125 C 180.941406 117.085938 175.710938 121.539062 171.835938 126.960938 C 171.320312 127.683594 170.820312 128.421875 170.359375 129.183594 C 171.320312 129.980469 172.246094 130.816406 173.148438 131.6875 C 177.984375 136.371094 181.882812 142.035156 184.515625 148.375 C 185.972656 151.878906 187.015625 155.519531 187.636719 159.203125 C 188.335938 155.527344 189.425781 151.9375 190.890625 148.515625 Z M 209.488281 125.910156 C 212.359375 123.960938 215.472656 122.277344 218.808594 120.902344 L 220.890625 120.046875 L 222.414062 121.710938 C 231.003906 131.128906 235.078125 143.117188 234.714844 154.96875 C 234.347656 166.828125 229.542969 178.542969 220.382812 187.417969 C 211.210938 196.308594 199.34375 200.753906 187.484375 200.753906 C 175.628906 200.753906 163.761719 196.308594 154.589844 187.417969 C 145.429688 178.542969 140.625 166.828125 140.257812 154.96875 C 139.894531 143.117188 143.96875 131.136719 152.558594 121.710938 L 154.027344 120.097656 L 156.066406 120.867188 C 159.261719 122.074219 162.296875 123.597656 165.132812 125.394531 C 165.597656 124.664062 166.082031 123.945312 166.582031 123.238281 C 171.394531 116.511719 178 111.066406 185.859375 107.648438 L 187.144531 107.089844 L 188.425781 107.648438 C 196.285156 111.066406 202.890625 116.511719 207.703125 123.238281 C 208.324219 124.109375 208.921875 125 209.480469 125.910156 Z M 209.488281 125.910156 " clip-rule="nonzero"/></clipPath><linearGradient x1="72.513517" gradientTransform="matrix(0.746328, 0, 0, 0.74586, 140.236177, 107.097957)" y1="-2.762818" x2="65.813789" gradientUnits="userSpaceOnUse" y2="128.918513" id="5e7ddfbb1f"><stop stop-opacity="1" stop-color="rgb(56.898499%, 78.399658%, 32.899475%)" offset="0"/><stop stop-opacity="1" stop-color="rgb(56.738281%, 78.372192%, 33.070374%)" offset="0.0487965"/><stop stop-opacity="1" stop-color="rgb(56.57959%, 78.344727%, 33.241272%)" offset="0.25"/><stop stop-opacity="1" stop-color="rgb(56.312561%, 78.297424%, 33.525085%)" offset="0.253906"/><stop stop-opacity="1" stop-color="rgb(56.047058%, 78.251648%, 33.810425%)" offset="0.257812"/><stop stop-opacity="1" stop-color="rgb(55.780029%, 78.205872%, 34.094238%)" offset="0.261719"/><stop stop-opacity="1" stop-color="rgb(55.514526%, 78.160095%, 34.379578%)" offset="0.265625"/><stop stop-opacity="1" stop-color="rgb(55.247498%, 78.114319%, 34.663391%)" offset="0.269531"/><stop stop-opacity="1" stop-color="rgb(54.980469%, 78.068542%, 34.94873%)" offset="0.273438"/><stop stop-opacity="1" stop-color="rgb(54.71344%, 78.022766%, 35.232544%)" offset="0.277344"/><stop stop-opacity="1" stop-color="rgb(54.447937%, 77.97699%, 35.517883%)" offset="0.28125"/><stop stop-opacity="1" stop-color="rgb(54.180908%, 77.931213%, 35.801697%)" offset="0.285156"/><stop stop-opacity="1" stop-color="rgb(53.915405%, 77.885437%, 36.087036%)" offset="0.289062"/><stop stop-opacity="1" stop-color="rgb(53.648376%, 77.839661%, 36.37085%)" offset="0.292969"/><stop stop-opacity="1" stop-color="rgb(53.382874%, 77.793884%, 36.656189%)" offset="0.296875"/><stop stop-opacity="1" stop-color="rgb(53.115845%, 77.748108%, 36.940002%)" offset="0.300781"/><stop stop-opacity="1" stop-color="rgb(52.850342%, 77.702332%, 37.225342%)" offset="0.304688"/><stop stop-opacity="1" stop-color="rgb(52.583313%, 77.656555%, 37.510681%)" offset="0.308594"/><stop stop-opacity="1" stop-color="rgb(52.31781%, 77.610779%, 37.796021%)" offset="0.3125"/><stop stop-opacity="1" stop-color="rgb(52.050781%, 77.563477%, 38.079834%)" offset="0.316406"/><stop stop-opacity="1" stop-color="rgb(51.783752%, 77.5177%, 38.365173%)" offset="0.320312"/><stop stop-opacity="1" stop-color="rgb(51.516724%, 77.471924%, 38.648987%)" offset="0.324219"/><stop stop-opacity="1" stop-color="rgb(51.251221%, 77.426147%, 38.934326%)" offset="0.328125"/><stop stop-opacity="1" stop-color="rgb(50.984192%, 77.380371%, 39.21814%)" offset="0.332031"/><stop stop-opacity="1" stop-color="rgb(50.718689%, 77.334595%, 39.503479%)" offset="0.335938"/><stop stop-opacity="1" stop-color="rgb(50.45166%, 77.288818%, 39.787292%)" offset="0.339844"/><stop stop-opacity="1" stop-color="rgb(50.186157%, 77.243042%, 40.072632%)" offset="0.34375"/><stop stop-opacity="1" stop-color="rgb(49.919128%, 77.197266%, 40.356445%)" offset="0.347656"/><stop stop-opacity="1" stop-color="rgb(49.653625%, 77.151489%, 40.641785%)" offset="0.351562"/><stop stop-opacity="1" stop-color="rgb(49.386597%, 77.105713%, 40.925598%)" offset="0.355469"/><stop stop-opacity="1" stop-color="rgb(49.121094%, 77.059937%, 41.210938%)" offset="0.359375"/><stop stop-opacity="1" stop-color="rgb(48.854065%, 77.01416%, 41.494751%)" offset="0.363281"/><stop stop-opacity="1" stop-color="rgb(48.587036%, 76.968384%, 41.78009%)" offset="0.367188"/><stop stop-opacity="1" stop-color="rgb(48.320007%, 76.921082%, 42.063904%)" offset="0.371094"/><stop stop-opacity="1" stop-color="rgb(48.054504%, 76.875305%, 42.349243%)" offset="0.375"/><stop stop-opacity="1" stop-color="rgb(47.787476%, 76.829529%, 42.633057%)" offset="0.378906"/><stop stop-opacity="1" stop-color="rgb(47.521973%, 76.783752%, 42.918396%)" offset="0.382812"/><stop stop-opacity="1" stop-color="rgb(47.254944%, 76.737976%, 43.202209%)" offset="0.386719"/><stop stop-opacity="1" stop-color="rgb(46.989441%, 76.6922%, 43.487549%)" offset="0.390625"/><stop stop-opacity="1" stop-color="rgb(46.722412%, 76.646423%, 43.772888%)" offset="0.394531"/><stop stop-opacity="1" stop-color="rgb(46.456909%, 76.600647%, 44.058228%)" offset="0.398438"/><stop stop-opacity="1" stop-color="rgb(46.18988%, 76.554871%, 44.342041%)" offset="0.402344"/><stop stop-opacity="1" stop-color="rgb(45.924377%, 76.509094%, 44.62738%)" offset="0.40625"/><stop stop-opacity="1" stop-color="rgb(45.657349%, 76.463318%, 44.911194%)" offset="0.410156"/><stop stop-opacity="1" stop-color="rgb(45.39032%, 76.417542%, 45.196533%)" offset="0.414063"/><stop stop-opacity="1" stop-color="rgb(45.123291%, 76.371765%, 45.480347%)" offset="0.417969"/><stop stop-opacity="1" stop-color="rgb(44.857788%, 76.325989%, 45.765686%)" offset="0.421875"/><stop stop-opacity="1" stop-color="rgb(44.590759%, 76.278687%, 46.0495%)" offset="0.425781"/><stop stop-opacity="1" stop-color="rgb(44.325256%, 76.23291%, 46.334839%)" offset="0.429688"/><stop stop-opacity="1" stop-color="rgb(44.058228%, 76.187134%, 46.618652%)" offset="0.433594"/><stop stop-opacity="1" stop-color="rgb(43.792725%, 76.141357%, 46.903992%)" offset="0.4375"/><stop stop-opacity="1" stop-color="rgb(43.525696%, 76.095581%, 47.187805%)" offset="0.441406"/><stop stop-opacity="1" stop-color="rgb(43.260193%, 76.049805%, 47.473145%)" offset="0.445313"/><stop stop-opacity="1" stop-color="rgb(42.993164%, 76.004028%, 47.756958%)" offset="0.449219"/><stop stop-opacity="1" stop-color="rgb(42.727661%, 75.958252%, 48.042297%)" offset="0.453125"/><stop stop-opacity="1" stop-color="rgb(42.460632%, 75.912476%, 48.326111%)" offset="0.457031"/><stop stop-opacity="1" stop-color="rgb(42.195129%, 75.866699%, 48.61145%)" offset="0.460938"/><stop stop-opacity="1" stop-color="rgb(41.928101%, 75.820923%, 48.895264%)" offset="0.464844"/><stop stop-opacity="1" stop-color="rgb(41.661072%, 75.775146%, 49.180603%)" offset="0.46875"/><stop stop-opacity="1" stop-color="rgb(41.394043%, 75.72937%, 49.465942%)" offset="0.472656"/><stop stop-opacity="1" stop-color="rgb(41.12854%, 75.683594%, 49.751282%)" offset="0.476562"/><stop stop-opacity="1" stop-color="rgb(40.861511%, 75.637817%, 50.035095%)" offset="0.480469"/><stop stop-opacity="1" stop-color="rgb(40.596008%, 75.592041%, 50.320435%)" offset="0.484375"/><stop stop-opacity="1" stop-color="rgb(40.328979%, 75.544739%, 50.604248%)" offset="0.488281"/><stop stop-opacity="1" stop-color="rgb(40.063477%, 75.498962%, 50.889587%)" offset="0.492188"/><stop stop-opacity="1" stop-color="rgb(39.796448%, 75.453186%, 51.173401%)" offset="0.496094"/><stop stop-opacity="1" stop-color="rgb(39.530945%, 75.40741%, 51.45874%)" offset="0.5"/><stop stop-opacity="1" stop-color="rgb(39.263916%, 75.361633%, 51.742554%)" offset="0.503906"/><stop stop-opacity="1" stop-color="rgb(38.998413%, 75.315857%, 52.027893%)" offset="0.507812"/><stop stop-opacity="1" stop-color="rgb(38.731384%, 75.270081%, 52.311707%)" offset="0.511719"/><stop stop-opacity="1" stop-color="rgb(38.464355%, 75.224304%, 52.597046%)" offset="0.515625"/><stop stop-opacity="1" stop-color="rgb(38.197327%, 75.178528%, 52.880859%)" offset="0.519531"/><stop stop-opacity="1" stop-color="rgb(37.931824%, 75.132751%, 53.166199%)" offset="0.523438"/><stop stop-opacity="1" stop-color="rgb(37.664795%, 75.086975%, 53.450012%)" offset="0.527344"/><stop stop-opacity="1" stop-color="rgb(37.399292%, 75.041199%, 53.735352%)" offset="0.53125"/><stop stop-opacity="1" stop-color="rgb(37.132263%, 74.995422%, 54.019165%)" offset="0.535156"/><stop stop-opacity="1" stop-color="rgb(36.86676%, 74.949646%, 54.304504%)" offset="0.539062"/><stop stop-opacity="1" stop-color="rgb(36.599731%, 74.902344%, 54.588318%)" offset="0.542969"/><stop stop-opacity="1" stop-color="rgb(36.334229%, 74.856567%, 54.873657%)" offset="0.546875"/><stop stop-opacity="1" stop-color="rgb(36.0672%, 74.810791%, 55.157471%)" offset="0.550781"/><stop stop-opacity="1" stop-color="rgb(35.801697%, 74.765015%, 55.44281%)" offset="0.554688"/><stop stop-opacity="1" stop-color="rgb(35.534668%, 74.719238%, 55.728149%)" offset="0.558594"/><stop stop-opacity="1" stop-color="rgb(35.267639%, 74.673462%, 56.013489%)" offset="0.5625"/><stop stop-opacity="1" stop-color="rgb(35.00061%, 74.627686%, 56.297302%)" offset="0.566406"/><stop stop-opacity="1" stop-color="rgb(34.735107%, 74.581909%, 56.582642%)" offset="0.570312"/><stop stop-opacity="1" stop-color="rgb(34.468079%, 74.536133%, 56.866455%)" offset="0.574219"/><stop stop-opacity="1" stop-color="rgb(34.202576%, 74.490356%, 57.151794%)" offset="0.578125"/><stop stop-opacity="1" stop-color="rgb(33.935547%, 74.44458%, 57.435608%)" offset="0.582031"/><stop stop-opacity="1" stop-color="rgb(33.670044%, 74.398804%, 57.720947%)" offset="0.585938"/><stop stop-opacity="1" stop-color="rgb(33.403015%, 74.353027%, 58.004761%)" offset="0.589844"/><stop stop-opacity="1" stop-color="rgb(33.137512%, 74.307251%, 58.2901%)" offset="0.59375"/><stop stop-opacity="1" stop-color="rgb(32.870483%, 74.259949%, 58.573914%)" offset="0.597656"/><stop stop-opacity="1" stop-color="rgb(32.60498%, 74.214172%, 58.859253%)" offset="0.601562"/><stop stop-opacity="1" stop-color="rgb(32.337952%, 74.168396%, 59.143066%)" offset="0.605469"/><stop stop-opacity="1" stop-color="rgb(32.070923%, 74.12262%, 59.428406%)" offset="0.609375"/><stop stop-opacity="1" stop-color="rgb(31.803894%, 74.076843%, 59.712219%)" offset="0.613281"/><stop stop-opacity="1" stop-color="rgb(31.538391%, 74.031067%, 59.997559%)" offset="0.617188"/><stop stop-opacity="1" stop-color="rgb(31.271362%, 73.985291%, 60.281372%)" offset="0.621094"/><stop stop-opacity="1" stop-color="rgb(31.005859%, 73.939514%, 60.566711%)" offset="0.625"/><stop stop-opacity="1" stop-color="rgb(30.738831%, 73.893738%, 60.850525%)" offset="0.628906"/><stop stop-opacity="1" stop-color="rgb(30.473328%, 73.847961%, 61.135864%)" offset="0.632812"/><stop stop-opacity="1" stop-color="rgb(30.206299%, 73.802185%, 61.421204%)" offset="0.636719"/><stop stop-opacity="1" stop-color="rgb(29.940796%, 73.756409%, 61.706543%)" offset="0.640625"/><stop stop-opacity="1" stop-color="rgb(29.673767%, 73.710632%, 61.990356%)" offset="0.644531"/><stop stop-opacity="1" stop-color="rgb(29.408264%, 73.664856%, 62.275696%)" offset="0.648438"/><stop stop-opacity="1" stop-color="rgb(29.141235%, 73.61908%, 62.559509%)" offset="0.652344"/><stop stop-opacity="1" stop-color="rgb(28.874207%, 73.573303%, 62.844849%)" offset="0.65625"/><stop stop-opacity="1" stop-color="rgb(28.607178%, 73.526001%, 63.128662%)" offset="0.660156"/><stop stop-opacity="1" stop-color="rgb(28.341675%, 73.480225%, 63.414001%)" offset="0.664062"/><stop stop-opacity="1" stop-color="rgb(28.074646%, 73.434448%, 63.697815%)" offset="0.667969"/><stop stop-opacity="1" stop-color="rgb(27.809143%, 73.388672%, 63.983154%)" offset="0.671875"/><stop stop-opacity="1" stop-color="rgb(27.542114%, 73.342896%, 64.266968%)" offset="0.675781"/><stop stop-opacity="1" stop-color="rgb(27.276611%, 73.297119%, 64.552307%)" offset="0.679687"/><stop stop-opacity="1" stop-color="rgb(27.009583%, 73.251343%, 64.836121%)" offset="0.683594"/><stop stop-opacity="1" stop-color="rgb(26.74408%, 73.205566%, 65.12146%)" offset="0.6875"/><stop stop-opacity="1" stop-color="rgb(26.477051%, 73.15979%, 65.405273%)" offset="0.691406"/><stop stop-opacity="1" stop-color="rgb(26.211548%, 73.114014%, 65.690613%)" offset="0.695312"/><stop stop-opacity="1" stop-color="rgb(25.944519%, 73.068237%, 65.974426%)" offset="0.699219"/><stop stop-opacity="1" stop-color="rgb(25.67749%, 73.022461%, 66.259766%)" offset="0.703125"/><stop stop-opacity="1" stop-color="rgb(25.410461%, 72.976685%, 66.543579%)" offset="0.707031"/><stop stop-opacity="1" stop-color="rgb(25.144958%, 72.930908%, 66.828918%)" offset="0.710937"/><stop stop-opacity="1" stop-color="rgb(24.87793%, 72.883606%, 67.112732%)" offset="0.714844"/><stop stop-opacity="1" stop-color="rgb(24.612427%, 72.83783%, 67.398071%)" offset="0.71875"/><stop stop-opacity="1" stop-color="rgb(24.345398%, 72.792053%, 67.683411%)" offset="0.722656"/><stop stop-opacity="1" stop-color="rgb(24.079895%, 72.746277%, 67.96875%)" offset="0.726562"/><stop stop-opacity="1" stop-color="rgb(23.812866%, 72.7005%, 68.252563%)" offset="0.730469"/><stop stop-opacity="1" stop-color="rgb(23.547363%, 72.654724%, 68.537903%)" offset="0.734375"/><stop stop-opacity="1" stop-color="rgb(23.280334%, 72.608948%, 68.821716%)" offset="0.738281"/><stop stop-opacity="1" stop-color="rgb(23.014832%, 72.563171%, 69.107056%)" offset="0.742187"/><stop stop-opacity="1" stop-color="rgb(22.747803%, 72.517395%, 69.390869%)" offset="0.746094"/><stop stop-opacity="1" stop-color="rgb(22.4823%, 72.471619%, 69.676208%)" offset="0.75"/><stop stop-opacity="1" stop-color="rgb(22.215271%, 72.425842%, 69.960022%)" offset="0.753906"/><stop stop-opacity="1" stop-color="rgb(21.948242%, 72.380066%, 70.245361%)" offset="0.757812"/><stop stop-opacity="1" stop-color="rgb(21.681213%, 72.33429%, 70.529175%)" offset="0.761719"/><stop stop-opacity="1" stop-color="rgb(21.41571%, 72.288513%, 70.814514%)" offset="0.765625"/><stop stop-opacity="1" stop-color="rgb(21.148682%, 72.241211%, 71.098328%)" offset="0.769531"/><stop stop-opacity="1" stop-color="rgb(20.883179%, 72.195435%, 71.383667%)" offset="0.773437"/><stop stop-opacity="1" stop-color="rgb(20.61615%, 72.149658%, 71.66748%)" offset="0.777344"/><stop stop-opacity="1" stop-color="rgb(20.350647%, 72.103882%, 71.95282%)" offset="0.78125"/><stop stop-opacity="1" stop-color="rgb(20.083618%, 72.058105%, 72.236633%)" offset="0.785156"/><stop stop-opacity="1" stop-color="rgb(19.818115%, 72.012329%, 72.521973%)" offset="0.789062"/><stop stop-opacity="1" stop-color="rgb(19.551086%, 71.966553%, 72.805786%)" offset="0.792969"/><stop stop-opacity="1" stop-color="rgb(19.285583%, 71.920776%, 73.091125%)" offset="0.796875"/><stop stop-opacity="1" stop-color="rgb(19.018555%, 71.875%, 73.374939%)" offset="0.800781"/><stop stop-opacity="1" stop-color="rgb(18.751526%, 71.829224%, 73.660278%)" offset="0.804687"/><stop stop-opacity="1" stop-color="rgb(18.484497%, 71.783447%, 73.945618%)" offset="0.808594"/><stop stop-opacity="1" stop-color="rgb(18.218994%, 71.737671%, 74.230957%)" offset="0.8125"/><stop stop-opacity="1" stop-color="rgb(17.951965%, 71.691895%, 74.514771%)" offset="0.816406"/><stop stop-opacity="1" stop-color="rgb(17.686462%, 71.646118%, 74.80011%)" offset="0.820312"/><stop stop-opacity="1" stop-color="rgb(17.419434%, 71.598816%, 75.083923%)" offset="0.824219"/><stop stop-opacity="1" stop-color="rgb(17.153931%, 71.55304%, 75.369263%)" offset="0.828125"/><stop stop-opacity="1" stop-color="rgb(16.886902%, 71.507263%, 75.653076%)" offset="0.832031"/><stop stop-opacity="1" stop-color="rgb(16.621399%, 71.461487%, 75.938416%)" offset="0.835938"/><stop stop-opacity="1" stop-color="rgb(16.35437%, 71.41571%, 76.222229%)" offset="0.839844"/><stop stop-opacity="1" stop-color="rgb(16.088867%, 71.369934%, 76.507568%)" offset="0.84375"/><stop stop-opacity="1" stop-color="rgb(15.821838%, 71.324158%, 76.791382%)" offset="0.847656"/><stop stop-opacity="1" stop-color="rgb(15.55481%, 71.278381%, 77.076721%)" offset="0.851562"/><stop stop-opacity="1" stop-color="rgb(15.287781%, 71.232605%, 77.360535%)" offset="0.855469"/><stop stop-opacity="1" stop-color="rgb(15.022278%, 71.186829%, 77.645874%)" offset="0.859375"/><stop stop-opacity="1" stop-color="rgb(14.755249%, 71.141052%, 77.929688%)" offset="0.863281"/><stop stop-opacity="1" stop-color="rgb(14.489746%, 71.095276%, 78.215027%)" offset="0.867187"/><stop stop-opacity="1" stop-color="rgb(14.222717%, 71.0495%, 78.49884%)" offset="0.871094"/><stop stop-opacity="1" stop-color="rgb(13.957214%, 71.003723%, 78.78418%)" offset="0.875"/><stop stop-opacity="1" stop-color="rgb(13.690186%, 70.957947%, 79.067993%)" offset="0.878906"/><stop stop-opacity="1" stop-color="rgb(13.424683%, 70.91217%, 79.353333%)" offset="0.882812"/><stop stop-opacity="1" stop-color="rgb(13.157654%, 70.864868%, 79.638672%)" offset="0.886719"/><stop stop-opacity="1" stop-color="rgb(12.892151%, 70.819092%, 79.924011%)" offset="0.890625"/><stop stop-opacity="1" stop-color="rgb(12.625122%, 70.773315%, 80.207825%)" offset="0.894531"/><stop stop-opacity="1" stop-color="rgb(12.358093%, 70.727539%, 80.493164%)" offset="0.898437"/><stop stop-opacity="1" stop-color="rgb(12.091064%, 70.681763%, 80.776978%)" offset="0.902344"/><stop stop-opacity="1" stop-color="rgb(11.825562%, 70.635986%, 81.062317%)" offset="0.90625"/><stop stop-opacity="1" stop-color="rgb(11.558533%, 70.59021%, 81.34613%)" offset="0.910156"/><stop stop-opacity="1" stop-color="rgb(11.29303%, 70.544434%, 81.63147%)" offset="0.914062"/><stop stop-opacity="1" stop-color="rgb(11.026001%, 70.498657%, 81.915283%)" offset="0.917969"/><stop stop-opacity="1" stop-color="rgb(10.760498%, 70.452881%, 82.200623%)" offset="0.921875"/><stop stop-opacity="1" stop-color="rgb(10.493469%, 70.407104%, 82.484436%)" offset="0.925781"/><stop stop-opacity="1" stop-color="rgb(10.227966%, 70.361328%, 82.769775%)" offset="0.929687"/><stop stop-opacity="1" stop-color="rgb(9.960938%, 70.315552%, 83.053589%)" offset="0.933594"/><stop stop-opacity="1" stop-color="rgb(9.695435%, 70.269775%, 83.338928%)" offset="0.9375"/><stop stop-opacity="1" stop-color="rgb(9.428406%, 70.222473%, 83.622742%)" offset="0.941406"/><stop stop-opacity="1" stop-color="rgb(9.161377%, 70.176697%, 83.908081%)" offset="0.945312"/><stop stop-opacity="1" stop-color="rgb(8.894348%, 70.13092%, 84.191895%)" offset="0.949219"/><stop stop-opacity="1" stop-color="rgb(8.628845%, 70.085144%, 84.477234%)" offset="0.953125"/><stop stop-opacity="1" stop-color="rgb(8.361816%, 70.039368%, 84.761047%)" offset="0.957031"/><stop stop-opacity="1" stop-color="rgb(8.096313%, 69.993591%, 85.046387%)" offset="0.960938"/><stop stop-opacity="1" stop-color="rgb(7.829285%, 69.947815%, 85.3302%)" offset="0.964844"/><stop stop-opacity="1" stop-color="rgb(7.563782%, 69.902039%, 85.61554%)" offset="0.96875"/><stop stop-opacity="1" stop-color="rgb(7.296753%, 69.856262%, 85.900879%)" offset="0.972656"/><stop stop-opacity="1" stop-color="rgb(7.03125%, 69.810486%, 86.186218%)" offset="0.976562"/><stop stop-opacity="1" stop-color="rgb(6.764221%, 69.764709%, 86.470032%)" offset="0.980469"/><stop stop-opacity="1" stop-color="rgb(6.498718%, 69.718933%, 86.755371%)" offset="0.984375"/><stop stop-opacity="1" stop-color="rgb(6.231689%, 69.673157%, 87.039185%)" offset="0.988281"/><stop stop-opacity="1" stop-color="rgb(5.964661%, 69.62738%, 87.324524%)" offset="0.992188"/><stop stop-opacity="1" stop-color="rgb(5.697632%, 69.580078%, 87.608337%)" offset="0.996094"/><stop stop-opacity="1" stop-color="rgb(5.432129%, 69.534302%, 87.893677%)" offset="1"/></linearGradient></defs><g clip-path="url(#5f63c22693)"><g clip-path="url(#cdee34c991)"><path fill="url(#5e7ddfbb1f)" d="M 140.234375 107.089844 L 140.234375 200.753906 L 234.734375 200.753906 L 234.734375 107.089844 Z M 140.234375 107.089844 " fill-rule="nonzero"/></g></g><g fill="#00afef" fill-opacity="1"><g transform="translate(96.400619, 237.629805)"><g><path d="M 1.613281 -4.644531 C 1.613281 -1.613281 3.226562 0 6.257812 0 L 10.519531 0 C 13.519531 0 15.164062 -1.613281 15.164062 -4.644531 L 15.164062 -13.613281 C 15.164062 -13.96875 14.96875 -14.132812 14.648438 -14.132812 L 9.226562 -14.132812 C 8.871094 -14.132812 8.710938 -13.96875 8.710938 -13.613281 L 8.710938 -10.386719 C 8.710938 -10.066406 8.871094 -9.871094 9.226562 -9.871094 L 10.90625 -9.871094 L 10.90625 -5.550781 C 10.90625 -4.679688 10.453125 -4.257812 9.613281 -4.257812 L 7.292969 -4.257812 C 6.453125 -4.257812 6 -4.679688 6 -5.550781 L 6 -20.261719 C 6 -21.101562 6.421875 -21.550781 7.292969 -21.550781 L 9.613281 -21.550781 C 10.453125 -21.550781 10.90625 -21.101562 10.90625 -20.261719 L 10.90625 -17.808594 C 10.90625 -17.484375 11.066406 -17.292969 11.421875 -17.292969 L 14.648438 -17.292969 C 14.96875 -17.292969 15.164062 -17.484375 15.164062 -17.808594 L 15.164062 -21.164062 C 15.164062 -24.195312 13.519531 -25.808594 10.519531 -25.808594 L 6.257812 -25.808594 C 3.226562 -25.808594 1.613281 -24.195312 1.613281 -21.164062 Z M 1.613281 -4.644531 "/></g></g></g><g fill="#00afef" fill-opacity="1"><g transform="translate(120.210363, 237.629805)"><g><path d="M 14.871094 -21.164062 C 14.871094 -24.195312 13.261719 -25.808594 10.226562 -25.808594 L 2.128906 -25.808594 C 1.808594 -25.808594 1.613281 -25.617188 1.613281 -25.292969 L 1.613281 -0.515625 C 1.613281 -0.195312 1.808594 0 2.128906 0 L 5.484375 0 C 5.808594 0 6 -0.195312 6 -0.515625 L 6 -8.644531 L 8.226562 -8.644531 L 10.386719 -0.453125 C 10.453125 -0.160156 10.613281 0 10.9375 0 L 14.292969 0 C 14.648438 0 14.839844 -0.195312 14.742188 -0.582031 L 12.519531 -9.035156 C 14.066406 -9.710938 14.871094 -11.128906 14.871094 -13.292969 Z M 6 -12.90625 L 6 -21.550781 L 9.195312 -21.550781 C 10.035156 -21.550781 10.484375 -21.101562 10.484375 -20.261719 L 10.484375 -14.195312 C 10.484375 -13.355469 10.035156 -12.90625 9.195312 -12.90625 Z M 6 -12.90625 "/></g></g></g><g fill="#00afef" fill-opacity="1"><g transform="translate(143.72974, 237.629805)"><g><path d="M 14.484375 -25.292969 C 14.484375 -25.617188 14.355469 -25.808594 13.96875 -25.808594 L 2.097656 -25.808594 C 1.808594 -25.808594 1.613281 -25.617188 1.613281 -25.292969 L 1.613281 -0.515625 C 1.613281 -0.195312 1.808594 0 2.097656 0 L 13.96875 0 C 14.355469 0 14.484375 -0.195312 14.484375 -0.515625 L 14.484375 -3.742188 C 14.484375 -4.097656 14.355469 -4.257812 13.96875 -4.257812 L 5.902344 -4.257812 L 5.902344 -10.777344 L 12.066406 -10.777344 C 12.390625 -10.777344 12.582031 -10.96875 12.582031 -11.324219 L 12.582031 -14.519531 C 12.582031 -14.871094 12.390625 -15.066406 12.066406 -15.066406 L 5.902344 -15.066406 L 5.902344 -21.519531 L 13.96875 -21.519531 C 14.355469 -21.519531 14.484375 -21.746094 14.484375 -22.066406 Z M 14.484375 -25.292969 "/></g></g></g><g fill="#00afef" fill-opacity="1"><g transform="translate(166.86197, 237.629805)"><g><path d="M 14.484375 -25.292969 C 14.484375 -25.617188 14.355469 -25.808594 13.96875 -25.808594 L 2.097656 -25.808594 C 1.808594 -25.808594 1.613281 -25.617188 1.613281 -25.292969 L 1.613281 -0.515625 C 1.613281 -0.195312 1.808594 0 2.097656 0 L 13.96875 0 C 14.355469 0 14.484375 -0.195312 14.484375 -0.515625 L 14.484375 -3.742188 C 14.484375 -4.097656 14.355469 -4.257812 13.96875 -4.257812 L 5.902344 -4.257812 L 5.902344 -10.777344 L 12.066406 -10.777344 C 12.390625 -10.777344 12.582031 -10.96875 12.582031 -11.324219 L 12.582031 -14.519531 C 12.582031 -14.871094 12.390625 -15.066406 12.066406 -15.066406 L 5.902344 -15.066406 L 5.902344 -21.519531 L 13.96875 -21.519531 C 14.355469 -21.519531 14.484375 -21.746094 14.484375 -22.066406 Z M 14.484375 -25.292969 "/></g></g></g><g fill="#00afef" fill-opacity="1"><g transform="translate(189.994201, 237.629805)"><g><path d="M 11.519531 -25.808594 C 11.164062 -25.808594 11 -25.617188 11 -25.292969 L 11 -11.679688 L 10.808594 -11.679688 L 5.902344 -25.390625 C 5.808594 -25.679688 5.613281 -25.808594 5.324219 -25.808594 L 2.128906 -25.808594 C 1.808594 -25.808594 1.613281 -25.617188 1.613281 -25.292969 L 1.613281 -0.515625 C 1.613281 -0.195312 1.808594 0 2.128906 0 L 5.484375 0 C 5.839844 0 6 -0.195312 6 -0.515625 L 6 -14.195312 L 6.164062 -14.195312 L 11.097656 -0.417969 C 11.195312 -0.128906 11.390625 0 11.679688 0 L 14.871094 0 C 15.195312 0 15.390625 -0.195312 15.390625 -0.515625 L 15.390625 -25.292969 C 15.390625 -25.617188 15.195312 -25.808594 14.871094 -25.808594 Z M 11.519531 -25.808594 "/></g></g></g><g fill="#00afef" fill-opacity="1"><g transform="translate(214.029769, 237.629805)"><g><path d="M 14.484375 -25.292969 C 14.484375 -25.617188 14.355469 -25.808594 13.96875 -25.808594 L 2.097656 -25.808594 C 1.808594 -25.808594 1.613281 -25.617188 1.613281 -25.292969 L 1.613281 -0.515625 C 1.613281 -0.195312 1.808594 0 2.097656 0 L 13.96875 0 C 14.355469 0 14.484375 -0.195312 14.484375 -0.515625 L 14.484375 -3.742188 C 14.484375 -4.097656 14.355469 -4.257812 13.96875 -4.257812 L 5.902344 -4.257812 L 5.902344 -10.777344 L 12.066406 -10.777344 C 12.390625 -10.777344 12.582031 -10.96875 12.582031 -11.324219 L 12.582031 -14.519531 C 12.582031 -14.871094 12.390625 -15.066406 12.066406 -15.066406 L 5.902344 -15.066406 L 5.902344 -21.519531 L 13.96875 -21.519531 C 14.355469 -21.519531 14.484375 -21.746094 14.484375 -22.066406 Z M 14.484375 -25.292969 "/></g></g></g><g fill="#00afef" fill-opacity="1"><g transform="translate(237.161999, 237.629805)"><g><path d="M 1.613281 -4.644531 C 1.613281 -1.613281 3.226562 0 6.257812 0 L 10.519531 0 C 13.519531 0 15.164062 -1.613281 15.164062 -4.644531 L 15.164062 -13.613281 C 15.164062 -13.96875 14.96875 -14.132812 14.648438 -14.132812 L 9.226562 -14.132812 C 8.871094 -14.132812 8.710938 -13.96875 8.710938 -13.613281 L 8.710938 -10.386719 C 8.710938 -10.066406 8.871094 -9.871094 9.226562 -9.871094 L 10.90625 -9.871094 L 10.90625 -5.550781 C 10.90625 -4.679688 10.453125 -4.257812 9.613281 -4.257812 L 7.292969 -4.257812 C 6.453125 -4.257812 6 -4.679688 6 -5.550781 L 6 -20.261719 C 6 -21.101562 6.421875 -21.550781 7.292969 -21.550781 L 9.613281 -21.550781 C 10.453125 -21.550781 10.90625 -21.101562 10.90625 -20.261719 L 10.90625 -17.808594 C 10.90625 -17.484375 11.066406 -17.292969 11.421875 -17.292969 L 14.648438 -17.292969 C 14.96875 -17.292969 15.164062 -17.484375 15.164062 -17.808594 L 15.164062 -21.164062 C 15.164062 -24.195312 13.519531 -25.808594 10.519531 -25.808594 L 6.257812 -25.808594 C 3.226562 -25.808594 1.613281 -24.195312 1.613281 -21.164062 Z M 1.613281 -4.644531 "/></g></g></g><g fill="#00afef" fill-opacity="1"><g transform="translate(260.971743, 237.629805)"><g><path d="M 13.164062 -25.808594 C 12.777344 -25.808594 12.550781 -25.648438 12.421875 -25.292969 L 8.808594 -16.035156 L 5.195312 -25.292969 C 5.066406 -25.648438 4.839844 -25.808594 4.453125 -25.808594 L 1.226562 -25.808594 C 0.742188 -25.808594 0.515625 -25.519531 0.710938 -25.066406 L 6.613281 -10.710938 L 6.613281 -0.644531 C 6.613281 -0.226562 6.839844 0 7.257812 0 L 10.355469 0 C 10.777344 0 11 -0.226562 11 -0.644531 L 11 -10.710938 L 16.90625 -25.066406 C 17.097656 -25.519531 16.875 -25.808594 16.390625 -25.808594 Z M 13.164062 -25.808594 "/></g></g></g><g fill="#91c854" fill-opacity="1"><g transform="translate(72.275635, 259.422547)"><g><path d="M 7.066406 -8.710938 C 7.066406 -10.183594 6.265625 -10.964844 4.792969 -10.964844 L 1.035156 -10.964844 C 0.878906 -10.964844 0.785156 -10.886719 0.785156 -10.714844 L 0.785156 -0.25 C 0.785156 -0.09375 0.878906 0 1.035156 0 L 4.792969 0 C 6.265625 0 7.066406 -0.785156 7.066406 -2.253906 L 7.066406 -4.339844 C 7.066406 -4.917969 6.640625 -5.359375 6.078125 -5.453125 L 6.078125 -5.484375 C 6.640625 -5.578125 7.066406 -6.015625 7.066406 -6.59375 Z M 5.074219 -7.113281 C 5.074219 -6.71875 4.855469 -6.5 4.449219 -6.5 L 2.726562 -6.5 L 2.726562 -8.992188 L 4.449219 -8.992188 C 4.871094 -8.992188 5.074219 -8.773438 5.074219 -8.363281 Z M 5.074219 -2.601562 C 5.074219 -2.175781 4.855469 -1.972656 4.449219 -1.972656 L 2.726562 -1.972656 L 2.726562 -4.433594 L 4.449219 -4.433594 C 4.871094 -4.433594 5.074219 -4.214844 5.074219 -3.804688 Z M 5.074219 -2.601562 "/></g></g></g><g fill="#91c854" fill-opacity="1"><g transform="translate(83.051668, 259.422547)"><g><path d="M 1.035156 0 C 0.863281 0 0.785156 -0.09375 0.785156 -0.25 L 0.785156 -10.714844 C 0.785156 -10.871094 0.863281 -10.964844 1.035156 -10.964844 L 2.664062 -10.964844 C 2.820312 -10.964844 2.914062 -10.871094 2.914062 -10.714844 L 2.914062 -0.25 C 2.914062 -0.09375 2.820312 0 2.664062 0 Z M 1.035156 0 "/></g></g></g><g fill="#91c854" fill-opacity="1"><g transform="translate(89.677675, 259.422547)"><g><path d="M 6.484375 -10.964844 C 6.65625 -10.964844 6.734375 -10.871094 6.734375 -10.714844 L 6.734375 -9.148438 C 6.734375 -8.992188 6.65625 -8.898438 6.484375 -8.898438 L 4.667969 -8.898438 L 4.667969 -0.25 C 4.667969 -0.078125 4.589844 0 4.417969 0 L 2.789062 0 C 2.632812 0 2.539062 -0.078125 2.539062 -0.25 L 2.539062 -8.898438 L 0.71875 -8.898438 C 0.5625 -8.898438 0.46875 -8.992188 0.46875 -9.148438 L 0.46875 -10.714844 C 0.46875 -10.871094 0.5625 -10.964844 0.71875 -10.964844 Z M 6.484375 -10.964844 "/></g></g></g><g fill="#91c854" fill-opacity="1"><g transform="translate(99.811628, 259.422547)"><g><path d="M 7.035156 -10.714844 C 7.035156 -10.871094 6.972656 -10.964844 6.78125 -10.964844 L 1.019531 -10.964844 C 0.878906 -10.964844 0.785156 -10.871094 0.785156 -10.714844 L 0.785156 -0.25 C 0.785156 -0.09375 0.878906 0 1.019531 0 L 6.78125 0 C 6.972656 0 7.035156 -0.09375 7.035156 -0.25 L 7.035156 -1.816406 C 7.035156 -1.988281 6.972656 -2.066406 6.78125 -2.066406 L 2.914062 -2.066406 L 2.914062 -4.386719 L 5.859375 -4.386719 C 6.015625 -4.386719 6.109375 -4.480469 6.109375 -4.652344 L 6.109375 -6.203125 C 6.109375 -6.375 6.015625 -6.46875 5.859375 -6.46875 L 2.914062 -6.46875 L 2.914062 -8.882812 L 6.78125 -8.882812 C 6.972656 -8.882812 7.035156 -8.992188 7.035156 -9.148438 Z M 7.035156 -10.714844 "/></g></g></g><g fill="#91c854" fill-opacity="1"><g transform="translate(110.556343, 259.422547)"><g><path d="M 0.785156 -4.917969 C 0.785156 -4.714844 0.894531 -4.605469 1.097656 -4.605469 L 3.570312 -4.605469 C 3.773438 -4.605469 3.886719 -4.714844 3.886719 -4.917969 L 3.886719 -6.359375 C 3.886719 -6.5625 3.773438 -6.671875 3.570312 -6.671875 L 1.097656 -6.671875 C 0.894531 -6.671875 0.785156 -6.5625 0.785156 -6.359375 Z M 0.785156 -4.917969 "/></g></g></g><g fill="#91c854" fill-opacity="1"><g transform="translate(118.153302, 259.422547)"><g><path d="M 3.039062 -10.964844 C 1.582031 -10.964844 0.785156 -10.183594 0.785156 -8.710938 L 0.785156 -6 C 0.785156 -5.703125 0.925781 -5.515625 1.207031 -5.421875 L 4.964844 -4.199219 L 4.964844 -2.617188 C 4.964844 -2.191406 4.746094 -1.988281 4.339844 -1.988281 L 3.492188 -1.988281 C 3.101562 -1.988281 2.867188 -2.191406 2.867188 -2.617188 L 2.867188 -3.273438 C 2.867188 -3.445312 2.789062 -3.523438 2.617188 -3.523438 L 1.035156 -3.523438 C 0.878906 -3.523438 0.785156 -3.445312 0.785156 -3.273438 L 0.785156 -2.253906 C 0.785156 -0.785156 1.582031 0 3.039062 0 L 4.792969 0 C 6.265625 0 7.050781 -0.785156 7.050781 -2.253906 L 7.050781 -5.199219 C 7.050781 -5.5 6.910156 -5.6875 6.640625 -5.78125 L 2.851562 -7.003906 L 2.851562 -8.332031 C 2.851562 -8.742188 3.085938 -8.960938 3.476562 -8.960938 L 4.339844 -8.960938 C 4.761719 -8.960938 4.964844 -8.742188 4.964844 -8.332031 L 4.964844 -7.675781 C 4.964844 -7.519531 5.058594 -7.425781 5.214844 -7.425781 L 6.796875 -7.425781 C 6.972656 -7.425781 7.050781 -7.519531 7.050781 -7.675781 L 7.050781 -8.710938 C 7.050781 -10.183594 6.265625 -10.964844 4.792969 -10.964844 Z M 3.039062 -10.964844 "/></g></g></g><g fill="#91c854" fill-opacity="1"><g transform="translate(128.913682, 259.422547)"><g><path d="M 1.035156 0 C 0.863281 0 0.785156 -0.09375 0.785156 -0.25 L 0.785156 -10.714844 C 0.785156 -10.871094 0.863281 -10.964844 1.035156 -10.964844 L 2.664062 -10.964844 C 2.820312 -10.964844 2.914062 -10.871094 2.914062 -10.714844 L 2.914062 -0.25 C 2.914062 -0.09375 2.820312 0 2.664062 0 Z M 1.035156 0 "/></g></g></g><g fill="#91c854" fill-opacity="1"><g transform="translate(135.539688, 259.422547)"><g><path d="M 1.285156 -10.964844 C 1.128906 -10.949219 1.035156 -10.871094 1.035156 -10.699219 L 1.035156 -9.148438 C 1.035156 -8.992188 1.128906 -8.898438 1.285156 -8.898438 L 4.511719 -8.898438 L 0.515625 -0.375 C 0.40625 -0.15625 0.5 0 0.75 0 L 6.894531 0 C 7.050781 -0.015625 7.144531 -0.109375 7.144531 -0.265625 L 7.144531 -1.675781 C 7.144531 -1.847656 7.050781 -1.925781 6.894531 -1.925781 L 3.460938 -1.925781 L 7.457031 -10.589844 C 7.566406 -10.808594 7.472656 -10.964844 7.222656 -10.964844 Z M 1.285156 -10.964844 "/></g></g></g><g fill="#91c854" fill-opacity="1"><g transform="translate(146.425345, 259.422547)"><g><path d="M 7.035156 -10.714844 C 7.035156 -10.871094 6.972656 -10.964844 6.78125 -10.964844 L 1.019531 -10.964844 C 0.878906 -10.964844 0.785156 -10.871094 0.785156 -10.714844 L 0.785156 -0.25 C 0.785156 -0.09375 0.878906 0 1.019531 0 L 6.78125 0 C 6.972656 0 7.035156 -0.09375 7.035156 -0.25 L 7.035156 -1.816406 C 7.035156 -1.988281 6.972656 -2.066406 6.78125 -2.066406 L 2.914062 -2.066406 L 2.914062 -4.386719 L 5.859375 -4.386719 C 6.015625 -4.386719 6.109375 -4.480469 6.109375 -4.652344 L 6.109375 -6.203125 C 6.109375 -6.375 6.015625 -6.46875 5.859375 -6.46875 L 2.914062 -6.46875 L 2.914062 -8.882812 L 6.78125 -8.882812 C 6.972656 -8.882812 7.035156 -8.992188 7.035156 -9.148438 Z M 7.035156 -10.714844 "/></g></g></g><g fill="#91c854" fill-opacity="1"><g transform="translate(157.170059, 259.422547)"><g/></g></g><g fill="#91c854" fill-opacity="1"><g transform="translate(164.015313, 259.422547)"><g><path d="M 7.066406 -8.710938 C 7.066406 -10.183594 6.265625 -10.964844 4.808594 -10.964844 L 3.054688 -10.964844 C 1.582031 -10.964844 0.785156 -10.183594 0.785156 -8.710938 L 0.785156 -2.253906 C 0.785156 -0.785156 1.582031 0 3.054688 0 L 4.808594 0 C 6.265625 0 7.066406 -0.785156 7.066406 -2.253906 L 7.066406 -3.949219 C 7.066406 -4.105469 6.972656 -4.199219 6.8125 -4.199219 L 5.34375 -4.199219 C 5.167969 -4.199219 5.089844 -4.105469 5.089844 -3.949219 L 5.089844 -2.617188 C 5.089844 -2.191406 4.871094 -1.988281 4.464844 -1.988281 L 3.460938 -1.988281 C 3.054688 -1.988281 2.835938 -2.191406 2.835938 -2.617188 L 2.835938 -8.300781 C 2.835938 -8.710938 3.039062 -8.929688 3.460938 -8.929688 L 4.464844 -8.929688 C 4.871094 -8.929688 5.089844 -8.710938 5.089844 -8.300781 L 5.089844 -7.019531 C 5.089844 -6.859375 5.167969 -6.765625 5.34375 -6.765625 L 6.8125 -6.765625 C 6.972656 -6.765625 7.066406 -6.859375 7.066406 -7.019531 Z M 7.066406 -8.710938 "/></g></g></g><g fill="#91c854" fill-opacity="1"><g transform="translate(174.791346, 259.422547)"><g><path d="M 2.914062 -2.066406 L 6.015625 -2.066406 C 6.1875 -2.066406 6.265625 -1.972656 6.265625 -1.816406 L 6.265625 -0.25 C 6.265625 -0.078125 6.1875 0 6.015625 0 L 1.035156 0 C 0.878906 0 0.785156 -0.078125 0.785156 -0.25 L 0.785156 -10.714844 C 0.785156 -10.871094 0.878906 -10.964844 1.035156 -10.964844 L 2.664062 -10.964844 C 2.835938 -10.964844 2.914062 -10.871094 2.914062 -10.714844 Z M 2.914062 -2.066406 "/></g></g></g><g fill="#91c854" fill-opacity="1"><g transform="translate(184.768693, 259.422547)"><g><path d="M 1.035156 0 C 0.863281 0 0.785156 -0.09375 0.785156 -0.25 L 0.785156 -10.714844 C 0.785156 -10.871094 0.863281 -10.964844 1.035156 -10.964844 L 2.664062 -10.964844 C 2.820312 -10.964844 2.914062 -10.871094 2.914062 -10.714844 L 2.914062 -0.25 C 2.914062 -0.09375 2.820312 0 2.664062 0 Z M 1.035156 0 "/></g></g></g><g fill="#91c854" fill-opacity="1"><g transform="translate(191.394706, 259.422547)"><g><path d="M 7.332031 -10.964844 C 7.144531 -10.964844 7.035156 -10.871094 6.988281 -10.699219 L 5.246094 -3.710938 L 3.507812 -10.699219 C 3.460938 -10.871094 3.351562 -10.964844 3.164062 -10.964844 L 1.097656 -10.964844 C 0.894531 -10.964844 0.785156 -10.855469 0.785156 -10.652344 L 0.785156 -0.3125 C 0.785156 -0.109375 0.894531 0 1.097656 0 L 2.539062 0 C 2.742188 0 2.851562 -0.109375 2.851562 -0.3125 L 2.851562 -6.46875 L 2.960938 -6.46875 L 4.433594 -0.265625 C 4.480469 -0.09375 4.589844 0 4.777344 0 L 5.703125 0 C 5.890625 0 6 -0.09375 6.046875 -0.265625 L 7.519531 -6.46875 L 7.628906 -6.46875 L 7.628906 -0.3125 C 7.628906 -0.109375 7.738281 0 7.941406 0 L 9.398438 0 C 9.601562 0 9.710938 -0.109375 9.710938 -0.3125 L 9.710938 -10.652344 C 9.710938 -10.855469 9.601562 -10.964844 9.398438 -10.964844 Z M 7.332031 -10.964844 "/></g></g></g><g fill="#91c854" fill-opacity="1"><g transform="translate(204.817368, 259.422547)"><g><path d="M 8.175781 0 C 8.363281 0 8.445312 -0.09375 8.398438 -0.265625 L 5.796875 -10.746094 C 5.765625 -10.902344 5.671875 -10.964844 5.53125 -10.964844 L 3.351562 -10.964844 C 3.210938 -10.964844 3.117188 -10.902344 3.085938 -10.746094 L 0.484375 -0.265625 C 0.4375 -0.09375 0.515625 0 0.6875 0 L 2.222656 0 C 2.367188 0 2.445312 -0.078125 2.476562 -0.21875 L 2.960938 -2.191406 L 5.90625 -2.191406 L 6.40625 -0.21875 C 6.4375 -0.078125 6.515625 0 6.65625 0 Z M 5.421875 -4.011719 L 3.445312 -4.011719 L 4.433594 -8.269531 Z M 5.421875 -4.011719 "/></g></g></g><g fill="#91c854" fill-opacity="1"><g transform="translate(216.626997, 259.422547)"><g><path d="M 6.484375 -10.964844 C 6.65625 -10.964844 6.734375 -10.871094 6.734375 -10.714844 L 6.734375 -9.148438 C 6.734375 -8.992188 6.65625 -8.898438 6.484375 -8.898438 L 4.667969 -8.898438 L 4.667969 -0.25 C 4.667969 -0.078125 4.589844 0 4.417969 0 L 2.789062 0 C 2.632812 0 2.539062 -0.078125 2.539062 -0.25 L 2.539062 -8.898438 L 0.71875 -8.898438 C 0.5625 -8.898438 0.46875 -8.992188 0.46875 -9.148438 L 0.46875 -10.714844 C 0.46875 -10.871094 0.5625 -10.964844 0.71875 -10.964844 Z M 6.484375 -10.964844 "/></g></g></g><g fill="#91c854" fill-opacity="1"><g transform="translate(226.760955, 259.422547)"><g><path d="M 7.035156 -10.714844 C 7.035156 -10.871094 6.972656 -10.964844 6.78125 -10.964844 L 1.019531 -10.964844 C 0.878906 -10.964844 0.785156 -10.871094 0.785156 -10.714844 L 0.785156 -0.25 C 0.785156 -0.09375 0.878906 0 1.019531 0 L 6.78125 0 C 6.972656 0 7.035156 -0.09375 7.035156 -0.25 L 7.035156 -1.816406 C 7.035156 -1.988281 6.972656 -2.066406 6.78125 -2.066406 L 2.914062 -2.066406 L 2.914062 -4.386719 L 5.859375 -4.386719 C 6.015625 -4.386719 6.109375 -4.480469 6.109375 -4.652344 L 6.109375 -6.203125 C 6.109375 -6.375 6.015625 -6.46875 5.859375 -6.46875 L 2.914062 -6.46875 L 2.914062 -8.882812 L 6.78125 -8.882812 C 6.972656 -8.882812 7.035156 -8.992188 7.035156 -9.148438 Z M 7.035156 -10.714844 "/></g></g></g><g fill="#91c854" fill-opacity="1"><g transform="translate(237.50567, 259.422547)"><g/></g></g><g fill="#91c854" fill-opacity="1"><g transform="translate(244.350924, 259.422547)"><g><path d="M 8.175781 0 C 8.363281 0 8.445312 -0.09375 8.398438 -0.265625 L 5.796875 -10.746094 C 5.765625 -10.902344 5.671875 -10.964844 5.53125 -10.964844 L 3.351562 -10.964844 C 3.210938 -10.964844 3.117188 -10.902344 3.085938 -10.746094 L 0.484375 -0.265625 C 0.4375 -0.09375 0.515625 0 0.6875 0 L 2.222656 0 C 2.367188 0 2.445312 -0.078125 2.476562 -0.21875 L 2.960938 -2.191406 L 5.90625 -2.191406 L 6.40625 -0.21875 C 6.4375 -0.078125 6.515625 0 6.65625 0 Z M 5.421875 -4.011719 L 3.445312 -4.011719 L 4.433594 -8.269531 Z M 5.421875 -4.011719 "/></g></g></g><g fill="#91c854" fill-opacity="1"><g transform="translate(256.160553, 259.422547)"><g><path d="M 7.066406 -8.710938 C 7.066406 -10.183594 6.265625 -10.964844 4.808594 -10.964844 L 3.054688 -10.964844 C 1.582031 -10.964844 0.785156 -10.183594 0.785156 -8.710938 L 0.785156 -2.253906 C 0.785156 -0.785156 1.582031 0 3.054688 0 L 4.808594 0 C 6.265625 0 7.066406 -0.785156 7.066406 -2.253906 L 7.066406 -3.949219 C 7.066406 -4.105469 6.972656 -4.199219 6.8125 -4.199219 L 5.34375 -4.199219 C 5.167969 -4.199219 5.089844 -4.105469 5.089844 -3.949219 L 5.089844 -2.617188 C 5.089844 -2.191406 4.871094 -1.988281 4.464844 -1.988281 L 3.460938 -1.988281 C 3.054688 -1.988281 2.835938 -2.191406 2.835938 -2.617188 L 2.835938 -8.300781 C 2.835938 -8.710938 3.039062 -8.929688 3.460938 -8.929688 L 4.464844 -8.929688 C 4.871094 -8.929688 5.089844 -8.710938 5.089844 -8.300781 L 5.089844 -7.019531 C 5.089844 -6.859375 5.167969 -6.765625 5.34375 -6.765625 L 6.8125 -6.765625 C 6.972656 -6.765625 7.066406 -6.859375 7.066406 -7.019531 Z M 7.066406 -8.710938 "/></g></g></g><g fill="#91c854" fill-opacity="1"><g transform="translate(266.936592, 259.422547)"><g><path d="M 6.484375 -10.964844 C 6.65625 -10.964844 6.734375 -10.871094 6.734375 -10.714844 L 6.734375 -9.148438 C 6.734375 -8.992188 6.65625 -8.898438 6.484375 -8.898438 L 4.667969 -8.898438 L 4.667969 -0.25 C 4.667969 -0.078125 4.589844 0 4.417969 0 L 2.789062 0 C 2.632812 0 2.539062 -0.078125 2.539062 -0.25 L 2.539062 -8.898438 L 0.71875 -8.898438 C 0.5625 -8.898438 0.46875 -8.992188 0.46875 -9.148438 L 0.46875 -10.714844 C 0.46875 -10.871094 0.5625 -10.964844 0.71875 -10.964844 Z M 6.484375 -10.964844 "/></g></g></g><g fill="#91c854" fill-opacity="1"><g transform="translate(277.07055, 259.422547)"><g><path d="M 1.035156 0 C 0.863281 0 0.785156 -0.09375 0.785156 -0.25 L 0.785156 -10.714844 C 0.785156 -10.871094 0.863281 -10.964844 1.035156 -10.964844 L 2.664062 -10.964844 C 2.820312 -10.964844 2.914062 -10.871094 2.914062 -10.714844 L 2.914062 -0.25 C 2.914062 -0.09375 2.820312 0 2.664062 0 Z M 1.035156 0 "/></g></g></g><g fill="#91c854" fill-opacity="1"><g transform="translate(283.696556, 259.422547)"><g><path d="M 0.785156 -2.253906 C 0.785156 -0.785156 1.566406 0 3.039062 0 L 4.792969 0 C 6.265625 0 7.050781 -0.785156 7.050781 -2.253906 L 7.050781 -8.710938 C 7.050781 -10.183594 6.265625 -10.964844 4.792969 -10.964844 L 3.039062 -10.964844 C 1.566406 -10.964844 0.785156 -10.183594 0.785156 -8.710938 Z M 3.445312 -2.019531 C 3.039062 -2.019531 2.820312 -2.222656 2.820312 -2.648438 L 2.820312 -8.316406 C 2.820312 -8.726562 3.039062 -8.945312 3.445312 -8.945312 L 4.449219 -8.945312 C 4.855469 -8.945312 5.074219 -8.726562 5.074219 -8.316406 L 5.074219 -2.648438 C 5.074219 -2.222656 4.855469 -2.019531 4.449219 -2.019531 Z M 3.445312 -2.019531 "/></g></g></g><g fill="#91c854" fill-opacity="1"><g transform="translate(294.456933, 259.422547)"><g><path d="M 5.75 -10.964844 C 5.578125 -10.964844 5.5 -10.871094 5.5 -10.714844 L 5.5 -4.777344 L 2.554688 -10.761719 C 2.492188 -10.902344 2.414062 -10.964844 2.269531 -10.964844 L 1.035156 -10.964844 C 0.878906 -10.964844 0.785156 -10.871094 0.785156 -10.714844 L 0.785156 -0.25 C 0.785156 -0.09375 0.878906 0 1.035156 0 L 2.507812 0 C 2.679688 0 2.757812 -0.09375 2.757812 -0.25 L 2.757812 -6.1875 L 5.703125 -0.203125 C 5.765625 -0.0625 5.84375 0 5.984375 0 L 7.222656 0 C 7.378906 0 7.472656 -0.09375 7.472656 -0.25 L 7.472656 -10.714844 C 7.472656 -10.871094 7.378906 -10.964844 7.222656 -10.964844 Z M 5.75 -10.964844 "/></g></g></g></svg>